<?xml version="1.0" standalone="no"?>
<!DOCTYPE svg PUBLIC "-//W3C//DTD SVG 1.1//EN" "http://www.w3.org/Graphics/SVG/1.1/DTD/svg11.dtd" >
<svg xmlns="http://www.w3.org/2000/svg">
<metadata>
This is a custom SVG webfont generated by Font Squirrel.
Copyright   :  2008 Bernd Montag  feel free to distribute  feel free to use personal and commercial  read attached textfile for restrictions
</metadata>
<defs>
<font id="webfontS2K4V4Bt" horiz-adv-x="483" >
<font-face units-per-em="2048" ascent="1638" descent="-410" />
<missing-glyph horiz-adv-x="500" />
<glyph unicode=" " />
<glyph unicode="!" d="M150 0v184h186v-184h-186zM150 371v1059h186v-1059h-186z" />
<glyph unicode="&#x22;" horiz-adv-x="753" d="M100 1430h185l-29 -435h-127zM469 1430h186l-30 -435h-125z" />
<glyph unicode="#" horiz-adv-x="1892" d="M100 344l29 154h403l89 379h-402l31 153h412l100 395h180l-100 -395h379l102 400h178l-100 -400h391l-29 -153h-401l-90 -379h401l-31 -154h-411l-90 -348h-180l90 348h-377l-90 -348h-181l89 348h-392zM713 498h377l90 379h-377z" />
<glyph unicode="$" horiz-adv-x="1048" d="M100 940q0 260 351 299v191h174v-191q147 -8 274 -49v-160q-170 59 -342 60q-293 0 -293 -150q0 -139 187 -139h149q350 0 350 -312q0 -260 -325 -299v-190h-174v190q-175 9 -301 50v159q170 -59 364 -59q252 0 252 149q0 141 -166 142h-149q-351 0 -351 309z" />
<glyph unicode="%" horiz-adv-x="1421" d="M100 0l1016 1430h207l-1018 -1430h-205zM100 1180q0 260 279 260q272 0 272 -260q0 -258 -272 -258q-279 0 -279 258zM229 1182q0 -147 150 -148q143 0 143 148q0 143 -143 143q-150 0 -150 -143zM770 250q0 260 279 260q274 0 274 -260t-274 -260q-279 0 -279 260z M899 252q0 -147 150 -148q143 0 143 148q0 143 -143 143q-150 0 -150 -143z" />
<glyph unicode="&#x26;" horiz-adv-x="1273" d="M100 393q0 248 193 334q-193 86 -193 317q0 385 510 386q184 0 361 -50v-149q-176 49 -348 49q-338 0 -338 -229q0 -250 256 -250h387v141h63l103 -141h182v-152h-164v-160q0 -492 -516 -491q-496 0 -496 395zM285 399.5q0 -249.5 301 -249.5q342 0 342 342v157h-385 q-258 0 -258 -249.5z" />
<glyph unicode="'" horiz-adv-x="382" d="M100 1430h185l-29 -435h-127z" />
<glyph unicode="(" horiz-adv-x="559" d="M100 524q0 457 199 906h186q-201 -455 -200.5 -905.5t200.5 -905.5h-186q-199 448 -199 905z" />
<glyph unicode=")" horiz-adv-x="559" d="M76 -381q199 449 198.5 905.5t-198.5 905.5h184q201 -455 201 -905.5t-201 -905.5h-184z" />
<glyph unicode="*" horiz-adv-x="808" d="M98 1151l49 149l211 -104l-30 234h155l-30 -232l209 100l49 -147l-230 -41l160 -172l-123 -90l-112 205l-113 -205l-125 90l162 170z" />
<glyph unicode="+" horiz-adv-x="948" d="M100 451v149h299v299h152v-299h299v-149h-299v-301h-152v301h-299z" />
<glyph unicode="," horiz-adv-x="534" d="M100 -250l150 434h184l-149 -434h-185z" />
<glyph unicode="-" horiz-adv-x="698" d="M100 451v149h500v-149h-500z" />
<glyph unicode="." horiz-adv-x="382" d="M100 0v184h185v-184h-185z" />
<glyph unicode="/" horiz-adv-x="978" d="M25 0l725 1430h204l-725 -1430h-204z" />
<glyph unicode="0" horiz-adv-x="1374" d="M76 713q0 727 616 727q608 0 608 -727q0 -723 -608 -723q-616 0 -616 723zM270 719q0 -580 422 -580q414 0 414 580q0 571 -414 571q-422 0 -422 -571z" />
<glyph unicode="1" horiz-adv-x="634" d="M100 1241v88l334 101v-1430h-184v1241h-150z" />
<glyph unicode="2" horiz-adv-x="1179" d="M100 0v150q795 547 795 870q0 270 -340 270q-223 0 -416 -110v159q193 100 416 101q524 0 524 -420q0 -371 -714 -870h714v-150h-979z" />
<glyph unicode="3" horiz-adv-x="1114" d="M100 49v162q203 -72 400 -72q330 0 329 260q0 250 -251 250h-328v152h325q254 0 254 250q0 240 -329 239q-203 0 -400 -69v159q193 59 400 60q516 0 516 -389q0 -236 -189 -326q188 -86 189 -326q0 -410 -516 -409q-207 0 -400 59z" />
<glyph unicode="4" horiz-adv-x="1124" d="M76 420v149l393 861h184l-385 -861h449v529h184v-529l150 -75v-74h-150v-420h-184v420h-641z" />
<glyph unicode="5" horiz-adv-x="1173" d="M100 700l50 730h854v-150h-697l-33 -401q111 20 256 20q569 0 570 -438q0 -471 -549 -471q-238 0 -430 59v162q203 -72 430 -72q365 0 364 322q0 289 -385 289q-235 -1 -430 -50z" />
<glyph unicode="6" horiz-adv-x="1239" d="M100 530q0 465 508 943l125 -107q-262 -246 -373 -489q96 23 256 22q524 0 525 -430q0 -479 -553 -479q-488 -1 -488 540zM274 547q0 -408 322 -408q362 0 362 330q0 281 -352 281q-197 0 -303 -27q-29 -115 -29 -176z" />
<glyph unicode="7" horiz-adv-x="1124" d="M100 1280v150h951v-150l-574 -1280h-211l592 1280h-758z" />
<glyph unicode="8" horiz-adv-x="1239" d="M100 424q0 223 211 321q-172 104 -172 332q0 367 482 367q479 0 479 -367q0 -229 -176 -332q217 -98 217 -321q0 -434 -520.5 -434t-520.5 434zM285 418q0 -279 340 -279q330 0 329 279q0 252 -342 252q-327 0 -327 -252zM326 1059q0 -240 299 -240q291 0 290 240 q0 231 -303 231q-286 0 -286 -231z" />
<glyph unicode="9" horiz-adv-x="1239" d="M100 965q0 479 533 479q508 0 508 -541q0 -465 -508 -942l-127 107q266 250 375 489q-129 -63 -297 -63q-484 0 -484 471zM281 965q0 -311 313 -312q233 0 344 80q27 86 27 156q0 406 -340 405q-344 1 -344 -329z" />
<glyph unicode=":" horiz-adv-x="382" d="M100 0v184h185v-184h-185zM100 864v187h185v-187h-185z" />
<glyph unicode=";" horiz-adv-x="534" d="M100 -250l150 434h184l-149 -434h-185zM250 864v187h184v-187h-184z" />
<glyph unicode="&#x3c;" horiz-adv-x="1099" d="M100 451v149l899 399v-149l-743 -330l743 -319v-152z" />
<glyph unicode="=" horiz-adv-x="948" d="M100 299v152h750v-152h-750zM100 600v150h750v-150h-750z" />
<glyph unicode="&#x3e;" horiz-adv-x="1099" d="M100 49v152l744 319l-744 330v149l899 -399v-149z" />
<glyph unicode="?" horiz-adv-x="1114" d="M100 1231v149q209 49 400 50q516 0 516 -390q0 -391 -498 -391h-84v-278h-184v430h264q315 0 315 239.5t-329 239.5q-191 0 -400 -49zM250 0h184v184h-184v-184z" />
<glyph unicode="@" horiz-adv-x="2148" d="M150 541q0 899 923 899q928 0 928 -899q0 -690 -428 -691q-242 0 -242 224q-127 -74 -311 -74q-395 0 -395 328q0 322 426 321q174 0 274 -18v98q0 170 -283 170q-163 0 -331 -49v149q176 51 331 52q467 0 467 -336v-627q0 -88 101 -88q205 0 205 541q0 750 -725 749 q-754 0 -754 -749q0 -770 684 -770v-152q-870 0 -870 922zM811 330q0 -180 209 -180q193 0 305 81v248q-104 20 -274 21q-240 0 -240 -170z" />
<glyph unicode="A" horiz-adv-x="1470" d="M25 0l608 1430h205l610 -1430h-197l-188 451h-479l51 149h356l-264 637l-510 -1237h-192z" />
<glyph unicode="B" horiz-adv-x="1308" d="M150 0v1430h610q408 0 407 -332q0 -246 -266 -350q285 -53 285 -324q0 -424 -447 -424h-589zM336 150h391q256 0 256 260q0 254 -342 254h-80v120q410 55 410 295q0 201 -228 201h-407v-1130z" />
<glyph unicode="C" horiz-adv-x="1384" d="M100 735q0 705 750 705q221 0 399 -60v-159q-182 70 -379 69q-586 0 -585 -555q0 -596 585 -596q193 0 379 72v-162q-178 -59 -399 -59q-750 0 -750 745z" />
<glyph unicode="D" horiz-adv-x="1499" d="M150 0v1430h579q672 0 672 -676q0 -754 -672 -754h-579zM336 150h354q524 0 524 604q0 526 -524 526h-354v-1130z" />
<glyph unicode="E" horiz-adv-x="1224" d="M150 0v1430h935v-150h-749v-479h715v-152h-715v-499h764v-150h-950z" />
<glyph unicode="F" horiz-adv-x="1208" d="M150 0v1430h935v-150h-749v-479h715v-152h-715v-649h-186z" />
<glyph unicode="G" horiz-adv-x="1384" d="M100 735q0 705 750 705q221 0 399 -60v-159q-182 70 -379 69q-586 0 -585 -555q0 -596 575 -596q94 0 205 25v485h184v-594q-174 -66 -372 -65q-777 0 -777 745z" />
<glyph unicode="H" horiz-adv-x="1533" d="M150 0v1430h186v-629h864v629h184v-1430h-184v649h-864v-649h-186z" />
<glyph unicode="I" d="M150 0v1430h186v-1430h-186z" />
<glyph unicode="J" horiz-adv-x="659" d="M25 0v150q301 0 301 262v1018h184v-1018q0 -412 -485 -412z" />
<glyph unicode="K" horiz-adv-x="1429" d="M150 0v1430h186v-1430h-186zM496 698v113l591 619h234l-641 -666l725 -764h-277z" />
<glyph unicode="L" horiz-adv-x="1181" d="M150 0v1430h186v-1280h747v-150h-933z" />
<glyph unicode="M" horiz-adv-x="1798" d="M150 0v1430h235l524 -1192l516 1192h226v-1430h-166v1153l-508 -1153h-146l-516 1153v-1153h-165z" />
<glyph unicode="N" horiz-adv-x="1533" d="M150 0v1430h186l874 -1141v1141h174v-1430h-184l-874 1143v-1143h-176z" />
<glyph unicode="O" horiz-adv-x="1624" d="M100 713q0 727 717 727q709 0 709 -727q0 -723 -709 -723q-717 0 -717 723zM295 719q0 -580 522 -580q512 0 512 580q0 571 -512 571q-522 0 -522 -571z" />
<glyph unicode="P" horiz-adv-x="1241" d="M150 0v1430h610q408 0 407 -343q0 -387 -569 -479l-37 156q410 66 410 315q0 199 -228 199h-407v-1278h-186z" />
<glyph unicode="Q" horiz-adv-x="1624" d="M100 713q0 727 717 727q709 0 709 -727q0 -599 -486 -707l232 -268l-144 -109l-311 361q-717 0 -717 723zM295 719q0 -580 522 -580q512 0 512 580q0 571 -512 571q-522 0 -522 -571z" />
<glyph unicode="R" horiz-adv-x="1284" d="M150 0v1430h610q408 0 407 -343q0 -279 -399 -413l492 -674h-244l-455 643v121q410 66 410 315q0 199 -228 199h-407v-1278h-186z" />
<glyph unicode="S" horiz-adv-x="1308" d="M100 1030q0 410 576 410q258 0 465 -60v-170q-215 80 -465 80q-391 0 -391 -260q0 -229 264 -229h205q457 0 456 -391q0 -420 -555 -420q-268 0 -485 59v170q224 -80 485 -80q369 0 369 271q0 229 -270 229h-205q-449 0 -449 391z" />
<glyph unicode="T" horiz-adv-x="1083" d="M0 1280v150h1085v-150h-450v-1280h-184v1280h-451z" />
<glyph unicode="U" horiz-adv-x="1488" d="M150 553v877h186v-877q0 -414 409.5 -414t409.5 414v877h184v-877q0 -563 -594 -563q-595 0 -595 563z" />
<glyph unicode="V" horiz-adv-x="1470" d="M25 1430h194l524 -1237l512 1237h193l-608 -1430h-205z" />
<glyph unicode="W" horiz-adv-x="1849" d="M25 1430h180l201 -1244l403 1244h184l434 -1244l228 1244h170l-269 -1430h-251l-406 1198l-389 -1198h-250z" />
<glyph unicode="X" horiz-adv-x="1409" d="M25 0l1126 1430h223l-1124 -1430h-225zM25 1430h225l1124 -1430h-223z" />
<glyph unicode="Y" horiz-adv-x="1298" d="M25 1430h204l412 -748l420 748h215l-547 -930v-500h-184v500z" />
<glyph unicode="Z" horiz-adv-x="1249" d="M125 0v150l805 1130h-785v150h979v-150l-776 -1130h758v-150h-981z" />
<glyph unicode="[" horiz-adv-x="649" d="M150 -381v1811h450v-150h-264v-1509h264v-152h-450z" />
<glyph unicode="\" horiz-adv-x="978" d="M25 1430h204l725 -1430h-204z" />
<glyph unicode="]" horiz-adv-x="649" d="M49 -229h266v1509h-266v150h451v-1811h-451v152z" />
<glyph unicode="^" horiz-adv-x="1048" d="M49 700l402 730h149l399 -730h-149l-330 603l-319 -603h-152z" />
<glyph unicode="_" horiz-adv-x="1048" d="M25 0h999v-150h-999v150z" />
<glyph unicode="`" horiz-adv-x="399" d="M0 1356v149l399 -149v-152z" />
<glyph unicode="a" horiz-adv-x="1134" d="M100 328q0 322 426 321q174 0 275 -18v98q0 170 -285 170q-163 0 -332 -49v149q176 51 332 52q469 0 469 -336v-715h-94l-74 74q-137 -74 -321 -74q-396 0 -396 328zM285 330q0 -180 211 -180q193 0 305 81v248q-104 20 -275 21q-241 0 -241 -170z" />
<glyph unicode="b" horiz-adv-x="1187" d="M150 43v1387h186v-431q125 51 254 52q498 0 497 -504q0 -547 -522 -547q-225 0 -415 43zM336 182q96 -29 219 -28q350 0 350 399q0 338 -315 338q-143 0 -254 -55v-654z" />
<glyph unicode="c" horiz-adv-x="1024" d="M100 545q0 506 570 506q152 0 280 -31v-150q-121 29 -260 29q-406 0 -405 -354q0 -395 405 -395q131 0 260 30v-149q-129 -31 -280 -31q-570 0 -570 545z" />
<glyph unicode="d" horiz-adv-x="1189" d="M100 547q0 504 498 504q131 0 256 -52v431h186v-1367q-188 -63 -471 -63q-469 0 -469 547zM283 553q0 -399 315 -399q147 0 256 39v643q-111 55 -256 55q-315 0 -315 -338z" />
<glyph unicode="e" horiz-adv-x="1130" d="M100 537q0 514 502 514q404 0 404 -409q0 -78 -15 -171h-706q0 -322 405 -321q141 0 279 30v-149q-138 -31 -338 -31q-531 0 -531 537zM285 627h538q1 15 1 29q0 245 -251 245q-270 0 -288 -274z" />
<glyph unicode="f" horiz-adv-x="720" d="M150 -4v1106q0 381 393 381q127 0 233 -41v-150q-96 39 -235 39q-205 0 -205 -172v-108h313v-152h-313v-899z" />
<glyph unicode="g" horiz-adv-x="1185" d="M100 530q0 520 525 521q212 0 411 -43v-1008q0 -381 -481 -381q-186 0 -344 51v150q154 -49 344 -49q297 0 297 229v49q-117 -49 -254 -49q-498 0 -498 530zM283 532q0 -373 315 -372q150 0 254 53v659q-94 25 -236 25q-333 0 -333 -365z" />
<glyph unicode="h" horiz-adv-x="1204" d="M150 0v1430h186v-494q164 115 356 115q362 0 363 -392v-659h-185v662q0 236 -233 235q-156 0 -301 -133v-764h-186z" />
<glyph unicode="i" d="M150 0v1051h186v-1051h-186zM150 1280v150h186v-150h-186z" />
<glyph unicode="j" d="M25 -293q125 133 125 373v971h186v-971q0 -315 -156 -477zM150 1280v150h186v-150h-186z" />
<glyph unicode="k" horiz-adv-x="1179" d="M150 0v1430h186v-461q162 82 362 82q381 0 381 -303q0 -223 -299 -306l336 -442h-233l-334 444v84q346 31 346 220q0 152 -219 151q-180 0 -340 -92v-807h-186z" />
<glyph unicode="l" d="M150 0v1430h186v-1430h-186z" />
<glyph unicode="m" horiz-adv-x="1804" d="M150 0v1051h124l31 -133q182 133 361 133q197 0 280 -146q201 145 377 146q332 0 332 -400v-651h-185v662q0 236 -198 235q-145 0 -277 -137v-760h-184v657q0 240 -197 240q-154 0 -278 -137v-760h-186z" />
<glyph unicode="n" horiz-adv-x="1204" d="M150 0v1051h124l33 -136q190 135 385 136q362 0 363 -392v-659h-185v662q0 236 -233 235q-156 0 -301 -133v-764h-186z" />
<glyph unicode="o" horiz-adv-x="1198" d="M100 524q0 526 500 526.5t500 -526.5q0 -524 -500 -524q-498 0 -500 524zM285 528q0 -379 315 -378.5t315 378.5q0 371 -315 371t-315 -371z" />
<glyph unicode="p" horiz-adv-x="1185" d="M150 -381v1389q209 43 432 43q506 0 505 -500q0 -551 -507 -551q-127 0 -244 49v-430h-186zM336 213q104 -53 242 -53q328 0 327 393q0 344 -325 344q-139 0 -244 -25v-659z" />
<glyph unicode="q" horiz-adv-x="1185" d="M100 530q0 520 525 521q212 0 411 -43v-1389h-184v430q-117 -49 -254 -49q-498 0 -498 530zM283 532q0 -373 315 -372q150 0 254 53v659q-94 25 -236 25q-333 0 -333 -365z" />
<glyph unicode="r" horiz-adv-x="673" d="M150 0v1051h124l33 -136q138 135 332 136v-154q-186 0 -303 -133v-764h-186z" />
<glyph unicode="s" horiz-adv-x="1048" d="M100 750q0 301 437 301q180 0 362 -52v-159q-170 59 -362 59q-262 0 -263 -149q0 -139 156 -140h170q350 0 350 -311q0 -299 -436 -299q-190 0 -364 49v162q174 -61 364 -61q252 0 252 149q0 141 -166 141h-170q-330 1 -330 310z" />
<glyph unicode="t" horiz-adv-x="649" d="M150 283v938h116l39 -170h246v-152h-215v-602q0 -147 127 -147h88v-150h-137q-264 0 -264 283z" />
<glyph unicode="u" horiz-adv-x="1204" d="M150 391v660h186v-664q0 -233 231 -233q158 0 303 133v764h185v-1051h-127l-31 133q-188 -133 -385 -133q-362 0 -362 391z" />
<glyph unicode="v" horiz-adv-x="999" d="M0 1051h201l301 -824l299 824h198l-426 -1051h-172z" />
<glyph unicode="w" horiz-adv-x="1519" d="M27 1051h186l197 -813l262 813h168l280 -813l178 813h197l-274 -1051h-189l-280 784l-267 -784h-192z" />
<glyph unicode="x" horiz-adv-x="1118" d="M25 0l786 1051h213l-784 -1051h-215zM25 1051h215l784 -1051h-213z" />
<glyph unicode="y" horiz-adv-x="1048" d="M25 1051h200l297 -822l307 822h197l-436 -1082q-117 -287 -348 -356l-72 131q178 78 256 250z" />
<glyph unicode="z" horiz-adv-x="989" d="M100 0v139l576 760h-555v152h770v-152l-567 -760h546v-139h-770z" />
<glyph unicode="{" horiz-adv-x="673" d="M100 451v149q209 0 209 352q0 299 131 478h185q-129 -176 -129 -478q0 -354 -211 -428q211 -74 211 -426q0 -303 129 -479h-185q-131 178 -131 479q0 353 -209 353z" />
<glyph unicode="|" d="M150 -381v1811h186v-1811h-186z" />
<glyph unicode="}" horiz-adv-x="673" d="M49 -381q131 178 131 479q0 352 209 426q-209 74 -209 428q0 299 -131 478h187q129 -176 129 -478q0 -352 210 -352v-149q-211 0 -210 -353q0 -303 -129 -479h-187z" />
<glyph unicode="~" horiz-adv-x="948" d="M100 430v150q104 109 364.5 20.5t385.5 20.5v-152q-102 -109 -365 -18q-260 88 -385 -21z" />
<glyph unicode="&#xa1;" d="M150 -381v1061h186v-1061h-186zM150 864v187h186v-187h-186z" />
<glyph unicode="&#xa2;" horiz-adv-x="1048" d="M100 735q0 449 469 504v191h176v-191q92 0 205 -29v-149q-121 29 -260 29q-406 0 -405 -355q0 -395 405 -395q131 0 260 31v-152q-121 -29 -205 -29v-190h-176v190q-469 51 -469 545z" />
<glyph unicode="&#xa3;" horiz-adv-x="1216" d="M100 -31v154q186 74 187 291q0 113 -78 291t-78 321q0 414 559 414q270 0 426 -101v-180q-160 131 -434 131q-352 0 -352 -262q0 -143 45 -227h375v-152h-324q49 -135 49 -233q0 -137 -63 -238q94 18 301 -39q209 -59 403 80v-170q-184 -129 -485 -55q-298 73 -531 -25z " />
<glyph unicode="&#xa4;" horiz-adv-x="1138" d="M100 172l115 121q-55 98 -55 231q0 141 55 232l-115 121l109 110l125 -121q111 70 241 70q121 0 226 -70l129 121l108 -110l-116 -121q57 -82 57 -232q0 -139 -68 -231l127 -121l-108 -111l-129 123q-104 -59 -234 -59q-125 0 -241 59l-117 -123zM322 528 q0 -246 245 -245q244 0 244 245q0 244 -244 244q-245 0 -245 -244z" />
<glyph unicode="&#xa5;" horiz-adv-x="1249" d="M49 1430h207l360 -627l369 627h215l-432 -701h311v-149h-374v-111h374v-150h-374v-319h-187v319h-348v150h348v111h-348v149h287z" />
<glyph unicode="&#xa6;" horiz-adv-x="200" />
<glyph unicode="&#xa7;" horiz-adv-x="1048" d="M100 721q0 137 121 194q-121 78 -121 226q0 299 457 299q168 0 342 -49v-160q-170 59 -342 59q-293 0 -293 -149q0 -131 197 -131h108q381 0 381 -297q0 -129 -121 -201q121 -66 121 -221q0 -301 -436 -301q-182 0 -364 51v160q174 -61 364 -62q252 0 252 152 q0 129 -197 129h-108q-361 0 -361 301zM264 717q0 -150 197 -150h108q197 0 197 138q0 156 -197 155h-108q-197 0 -197 -143z" />
<glyph unicode="&#xa8;" horiz-adv-x="552" d="M0 1280v150h184v-150h-184zM371 1280v150h184v-150h-184z" />
<glyph unicode="&#xa9;" horiz-adv-x="1161" d="M150 1024q0 426 430 426q434 0 434 -426q0 -416 -434 -416q-418 0 -430 416zM223 1024q0 -360 357 -360q360 0 360 360q0 371 -360 371q-357 0 -357 -371zM322 1032q0 -287 288 -287q82 0 156 23v61q-68 -27 -148 -26q-225 0 -225 229q0 213 225 213q80 0 148 -26v61 q-74 23 -156 23q-288 -1 -288 -271z" />
<glyph unicode="&#xaa;" horiz-adv-x="401" />
<glyph unicode="&#xab;" horiz-adv-x="1007" d="M100 524l258 375h201l-258 -375l258 -374h-201zM500 524l258 375h200l-258 -375l258 -374h-200z" />
<glyph unicode="&#xac;" horiz-adv-x="1394" />
<glyph unicode="&#xad;" horiz-adv-x="634" />
<glyph unicode="&#x2212;" horiz-adv-x="634" />
<glyph unicode="&#xae;" horiz-adv-x="1161" d="M150 1024q0 426 430 426q434 0 434 -426q0 -416 -434 -416q-418 0 -430 416zM223 1024q0 -360 357 -360q360 0 360 360q0 371 -360 371q-357 0 -357 -371zM403 756v536h230q154 0 153 -129q0 -104 -149 -153l182 -254h-90l-172 241v45q156 25 156 119q0 74 -86 74h-154 v-479h-70z" />
<glyph unicode="&#xaf;" horiz-adv-x="358" />
<glyph unicode="&#x2c9;" horiz-adv-x="358" />
<glyph unicode="&#xb0;" horiz-adv-x="751" d="M100 1169q0 260 279 261q272 0 272 -261q0 -258 -272 -258q-279 0 -279 258zM229 1171q0 -147 150 -147q143 0 143 147q0 145 -143 146q-150 -1 -150 -146z" />
<glyph unicode="&#xb1;" horiz-adv-x="634" />
<glyph unicode="&#xb2;" horiz-adv-x="299" />
<glyph unicode="&#xb3;" horiz-adv-x="299" />
<glyph unicode="&#xb4;" horiz-adv-x="399" d="M0 1204v152l399 149v-149z" />
<glyph unicode="&#xb5;" horiz-adv-x="1204" d="M150 -381v1432h186v-613q0 -285 231 -284q158 0 303 133v764h185v-1051h-127l-31 133q-188 -133 -365 -133q-129 0 -196 80v-461h-186z" />
<glyph unicode="&#x3bc;" horiz-adv-x="1204" d="M150 -381v1432h186v-613q0 -285 231 -284q158 0 303 133v764h185v-1051h-127l-31 133q-188 -133 -365 -133q-129 0 -196 80v-461h-186z" />
<glyph unicode="&#xb6;" horiz-adv-x="952" d="M0 985q0 444 442 445h510v-91h-149v-1773h-101v1773h-159v-1773h-101v973q-442 0 -442 446z" />
<glyph unicode="&#xb7;" horiz-adv-x="448" d="M100 524q0 125 125 125t125 -125t-125 -125t-125 125z" />
<glyph unicode="&#x2219;" horiz-adv-x="448" d="M100 524q0 125 125 125t125 -125t-125 -125t-125 125z" />
<glyph unicode="&#xb8;" horiz-adv-x="456" d="M0 -264q108 -49 215 -49q109 0 109 63q0 66 -82 66h-185l131 258h136l-80 -152q213 0 213 -172t-242 -172q-108 0 -215 49v109z" />
<glyph unicode="&#xb9;" horiz-adv-x="299" />
<glyph unicode="&#xba;" horiz-adv-x="401" />
<glyph unicode="&#xbb;" horiz-adv-x="1007" d="M49 150l258 374l-258 375h203l258 -375l-258 -374h-203zM449 150l258 374l-258 375h202l258 -375l-258 -374h-202z" />
<glyph unicode="&#xbc;" horiz-adv-x="784" />
<glyph unicode="&#xbd;" horiz-adv-x="784" />
<glyph unicode="&#xbe;" horiz-adv-x="784" />
<glyph unicode="&#xbf;" horiz-adv-x="1114" d="M100 -180q209 -49 400 -49q330 0 329.5 239.5t-315.5 239.5h-264v430h184v-281h84q498 0 498 -389q0 -391 -516 -391q-182 0 -400 51v150zM250 864v187h184v-187h-184z" />
<glyph unicode="&#xc0;" horiz-adv-x="1470" d="M25 0l608 1430h205l610 -1430h-197l-188 451h-479l51 149h356l-264 637l-510 -1237h-192zM524 1688v149l402 -149v-150z" />
<glyph unicode="&#xc1;" horiz-adv-x="1470" d="M25 0l608 1430h205l610 -1430h-197l-188 451h-479l51 149h356l-264 637l-510 -1237h-192zM524 1538v150l402 149v-149z" />
<glyph unicode="&#xc2;" horiz-adv-x="1470" d="M25 0l608 1430h205l610 -1430h-197l-188 451h-479l51 149h356l-264 637l-510 -1237h-192zM481 1575l176 260h150l174 -260h-150l-100 160l-98 -160h-152z" />
<glyph unicode="&#xc3;" horiz-adv-x="1470" d="M25 0l608 1430h205l610 -1430h-197l-188 451h-479l51 149h356l-264 637l-510 -1237h-192zM487 1620v149q106 82 240 21q135 -61 260 18v-149q-106 -82 -239 -21q-136 62 -261 -18z" />
<glyph unicode="&#xc4;" horiz-adv-x="1470" d="M25 0l608 1430h205l610 -1430h-197l-188 451h-479l51 149h356l-264 637l-510 -1237h-192zM455 1638v152h184v-152h-184zM823 1638v152h187v-152h-187z" />
<glyph unicode="&#xc5;" horiz-adv-x="1470" d="M25 0l608 1430h205l610 -1430h-197l-188 451h-479l51 149h356l-264 637l-510 -1237h-192zM455 1577q0 258 276 258q274 0 275 -258q0 -260 -275 -260q-276 0 -276 260zM584 1579q0 -147 147 -147q145 0 146 147q0 143 -146 143q-147 0 -147 -143z" />
<glyph unicode="&#xc6;" horiz-adv-x="1873" d="M25 0l608 1430h1098v-150h-838l209 -479h594v-152h-525l226 -499h352v-150h-498l-524 1237l-264 -637h348l59 -149h-458l-195 -451h-192z" />
<glyph unicode="&#xc7;" horiz-adv-x="1384" d="M100 735q0 705 750 705q221 0 399 -60v-159q-182 70 -379 69q-586 0 -585 -555q0 -596 585 -596q193 0 379 72v-162q-178 -59 -399 -59q-750 0 -750 745zM584 -264q108 -49 215 -49q109 0 108 63q0 66 -84 66h-182l131 260h135l-82 -154q215 0 215 -172t-241 -172 q-108 0 -215 49v109z" />
<glyph unicode="&#xc8;" horiz-adv-x="1224" d="M150 0h950v150h-764v499h715v152h-715v479h749v150h-935v-1430zM436 1688v149l400 -149v-150z" />
<glyph unicode="&#xc9;" horiz-adv-x="1224" d="M150 0h950v150h-764v499h715v152h-715v479h749v150h-935v-1430zM436 1538v150l400 149v-149z" />
<glyph unicode="&#xca;" horiz-adv-x="1224" d="M150 0h950v150h-764v499h715v152h-715v479h749v150h-935v-1430zM379 1575l176 260h150l174 -260h-150l-100 160l-101 -160h-149z" />
<glyph unicode="&#xcb;" horiz-adv-x="1224" d="M150 0h950v150h-764v499h715v152h-715v479h749v150h-935v-1430zM336 1638v152h184v-152h-184zM707 1638v152h184v-152h-184z" />
<glyph unicode="&#xcc;" d="M45 1688v149l399 -149v-150zM150 0h186v1430h-186v-1430z" />
<glyph unicode="&#xcd;" d="M45 1538v150l399 149v-149zM150 0h186v1430h-186v-1430z" />
<glyph unicode="&#xce;" d="M-8 1575l176 260h149l175 -260h-150l-100 160l-101 -160h-149zM150 0h186v1430h-186v-1430z" />
<glyph unicode="&#xcf;" d="M-35 1638v152h185v-152h-185zM150 0h186v1430h-186v-1430zM336 1638v152h184v-152h-184z" />
<glyph unicode="&#xd0;" horiz-adv-x="661" />
<glyph unicode="&#xd1;" horiz-adv-x="1533" d="M150 0v1430h186l874 -1141v1141h174v-1430h-184l-874 1143v-1143h-176zM514 1620v149q106 82 241.5 21t260.5 18v-149q-106 -82 -241.5 -20.5t-260.5 -18.5z" />
<glyph unicode="&#xd2;" horiz-adv-x="1624" d="M100 713q0 727 717 727q709 0 709 -727q0 -723 -709 -723q-717 0 -717 723zM295 719q0 -580 522 -580q512 0 512 580q0 571 -512 571q-522 0 -522 -571zM590 1688v149l399 -149v-150z" />
<glyph unicode="&#xd3;" horiz-adv-x="1624" d="M100 713q0 727 717 727q709 0 709 -727q0 -723 -709 -723q-717 0 -717 723zM295 719q0 -580 522 -580q512 0 512 580q0 571 -512 571q-522 0 -522 -571zM590 1538v150l399 149v-149z" />
<glyph unicode="&#xd4;" horiz-adv-x="1624" d="M100 713q0 727 717 727q709 0 709 -727q0 -723 -709 -723q-717 0 -717 723zM295 719q0 -580 522 -580q512 0 512 580q0 571 -512 571q-522 0 -522 -571zM559 1575l174 260h152l174 -260h-150l-100 160l-100 -160h-150z" />
<glyph unicode="&#xd5;" horiz-adv-x="1624" d="M100 713q0 727 717 727q709 0 709 -727q0 -723 -709 -723q-717 0 -717 723zM295 719q0 -580 522 -580q512 0 512 580q0 571 -512 571q-522 0 -522 -571zM563 1620v149q106 82 240 21q135 -61 260 18v-149q-106 -82 -240 -21q-135 62 -260 -18z" />
<glyph unicode="&#xd6;" horiz-adv-x="1624" d="M100 713q0 727 717 727q709 0 709 -727q0 -723 -709 -723q-717 0 -717 723zM295 719q0 -580 522 -580q512 0 512 580q0 571 -512 571q-522 0 -522 -571zM543 1638v152h184v-152h-184zM913 1638v152h185v-152h-185z" />
<glyph unicode="&#xd7;" horiz-adv-x="634" />
<glyph unicode="&#xd8;" horiz-adv-x="1624" d="M100 713q0 727 717 727q709 0 709 -727q0 -723 -709 -723q-717 0 -717 723zM168 0l1083 1430h199l-1085 -1430h-197zM295 719q0 -580 522 -580q512 0 512 580q0 571 -512 571q-522 0 -522 -571z" />
<glyph unicode="&#xd9;" horiz-adv-x="1488" d="M150 553v877h186v-877q0 -414 409.5 -414t409.5 414v877h184v-877q0 -563 -594 -563q-595 0 -595 563zM549 1688v149l399 -149v-150z" />
<glyph unicode="&#xda;" horiz-adv-x="1488" d="M150 553v877h186v-877q0 -414 409.5 -414t409.5 414v877h184v-877q0 -563 -594 -563q-595 0 -595 563zM549 1538v150l399 149v-149z" />
<glyph unicode="&#xdb;" horiz-adv-x="1488" d="M150 553v877h186v-877q0 -414 409.5 -414t409.5 414v877h184v-877q0 -563 -594 -563q-595 0 -595 563zM477 1575l176 260h150l176 -260h-152l-100 160l-98 -160h-152z" />
<glyph unicode="&#xdc;" horiz-adv-x="1488" d="M150 553v877h186v-877q0 -414 409.5 -414t409.5 414v877h184v-877q0 -563 -594 -563q-595 0 -595 563zM469 1638v152h184v-152h-184zM840 1638v152h184v-152h-184z" />
<glyph unicode="&#xdd;" horiz-adv-x="524" />
<glyph unicode="&#xde;" horiz-adv-x="575" />
<glyph unicode="&#xdf;" horiz-adv-x="1210" d="M150 0v958q0 469 464 469q430 0 430 -397v-94q-305 -104 -305 -240q0 -70 187 -137q184 -68 184 -258q0 -301 -424 -301h-131v150h133q227 0 227 151q0 80 -174 148q-176 68 -176 245q0 207 289 336q0 248 -248 248q-270 0 -270 -322v-956h-186z" />
<glyph unicode="&#xe0;" horiz-adv-x="1134" d="M100 328q0 322 426 321q174 0 275 -18v98q0 170 -285 170q-163 0 -332 -49v149q176 51 332 52q469 0 469 -336v-715h-94l-74 74q-137 -74 -321 -74q-396 0 -396 328zM285 330q0 -180 211 -180q193 0 305 81v248q-104 20 -275 21q-241 0 -241 -170zM358 1356v149l400 -149 v-152z" />
<glyph unicode="&#xe1;" horiz-adv-x="1134" d="M100 328q0 322 426 321q174 0 275 -18v98q0 170 -285 170q-163 0 -332 -49v149q176 51 332 52q469 0 469 -336v-715h-94l-74 74q-137 -74 -321 -74q-396 0 -396 328zM285 330q0 -180 211 -180q193 0 305 81v248q-104 20 -275 21q-241 0 -241 -170zM358 1204v152l400 149 v-149z" />
<glyph unicode="&#xe2;" horiz-adv-x="1134" d="M100 328q0 322 426 321q174 0 275 -18v98q0 170 -285 170q-163 0 -332 -49v149q176 51 332 52q469 0 469 -336v-715h-94l-74 74q-137 -74 -321 -74q-396 0 -396 328zM285 330q0 -180 211 -180q193 0 305 81v248q-104 20 -275 21q-241 0 -241 -170zM315 1280l174 260h150 l176 -260h-149l-101 160l-100 -160h-150z" />
<glyph unicode="&#xe3;" horiz-adv-x="1134" d="M100 328q0 322 426 321q174 0 275 -18v98q0 170 -285 170q-163 0 -332 -49v149q176 51 332 52q469 0 469 -336v-715h-94l-74 74q-137 -74 -321 -74q-396 0 -396 328zM285 330q0 -180 211 -180q193 0 305 81v248q-104 20 -275 21q-241 0 -241 -170zM303 1260v149 q106 82 240 21q133 -59 260 20v-152q-104 -80 -240 -18q-133 60 -260 -20z" />
<glyph unicode="&#xe4;" horiz-adv-x="1134" d="M100 328q0 322 426 321q174 0 275 -18v98q0 170 -285 170q-163 0 -332 -49v149q176 51 332 52q469 0 469 -336v-715h-94l-74 74q-137 -74 -321 -74q-396 0 -396 328zM285 330q0 -180 211 -180q193 0 305 81v248q-104 20 -275 21q-241 0 -241 -170zM291 1280v150h184v-150 h-184zM662 1280v150h184v-150h-184z" />
<glyph unicode="&#xe5;" horiz-adv-x="1134" d="M100 328q0 322 426 321q174 0 275 -18v98q0 170 -285 170q-163 0 -332 -49v149q176 51 332 52q469 0 469 -336v-715h-94l-74 74q-137 -74 -321 -74q-396 0 -396 328zM285 330q0 -180 211 -180q193 0 305 81v248q-104 20 -275 21q-241 0 -241 -170zM287 1538 q0 260 278 260q274 0 275 -260q0 -258 -275 -258q-278 0 -278 258zM418 1540.5q0 -145.5 147 -145.5q143 0 143.5 145.5t-143.5 145.5q-147 0 -147 -145.5z" />
<glyph unicode="&#xe6;" horiz-adv-x="1832" d="M100 330q0 319 426 319q160 0 277 -20v102q0 168 -283 168q-176 0 -332 -47v145q172 53 334 54q299 0 398 -148q117 147 391 148q481 0 385 -580h-709q0 -322 402 -321q141 0 284 28v-147q-147 -31 -342 -31q-254 0 -397 131q-211 -131 -438 -131q-396 0 -396 330z M285 330q0 -180 211 -180q193 0 305 81v248q-104 20 -275 21q-241 0 -241 -170zM985 627h539q14 272 -250 272q-271 0 -289 -272z" />
<glyph unicode="&#xe7;" horiz-adv-x="1024" d="M100 545q0 506 570 506q152 0 280 -31v-150q-121 29 -260 29q-406 0 -405 -354q0 -395 405 -395q131 0 260 30v-149q-129 -31 -280 -31q-570 0 -570 545zM397 -264q106 -49 217 -49q109 0 109 63q0 66 -84 66h-182l131 258h135l-82 -152q213 0 213 -172t-240 -172 q-111 0 -217 49v109z" />
<glyph unicode="&#xe8;" horiz-adv-x="1130" d="M100 537q0 514 502 514q481 0 389 -580h-706q0 -322 405 -321q141 0 279 30v-149q-138 -31 -338 -31q-531 0 -531 537zM285 627h538q14 274 -250 274q-270 0 -288 -274zM369 1356v149l399 -149v-152z" />
<glyph unicode="&#xe9;" horiz-adv-x="1130" d="M100 537q0 514 502 514q481 0 389 -580h-706q0 -322 405 -321q141 0 279 30v-149q-138 -31 -338 -31q-531 0 -531 537zM285 627h538q14 274 -250 274q-270 0 -288 -274zM369 1204v152l399 149v-149z" />
<glyph unicode="&#xea;" horiz-adv-x="1130" d="M100 537q0 514 502 514q481 0 389 -580h-706q0 -322 405 -321q141 0 279 30v-149q-138 -31 -338 -31q-531 0 -531 537zM285 627h538q14 274 -250 274q-270 0 -288 -274zM317 1280l177 260h149l174 -260h-149l-101 160l-98 -160h-152z" />
<glyph unicode="&#xeb;" horiz-adv-x="1130" d="M100 537q0 514 502 514q481 0 389 -580h-706q0 -322 405 -321q141 0 279 30v-149q-138 -31 -338 -31q-531 0 -531 537zM285 627h538q14 274 -250 274q-270 0 -288 -274zM291 1280v150h184v-150h-184zM662 1280v150h184v-150h-184z" />
<glyph unicode="&#xec;" d="M45 1356v149l399 -149v-152zM150 0v1051h186v-1051h-186z" />
<glyph unicode="&#xed;" d="M45 1204v152l399 149v-149zM150 0v1051h186v-1051h-186z" />
<glyph unicode="&#xee;" d="M-8 1280l176 260h149l175 -260h-150l-100 160l-101 -160h-149zM150 0v1051h186v-1051h-186z" />
<glyph unicode="&#xef;" d="M-35 1280v150h185v-150h-185zM150 0v1051h186v-1051h-186zM336 1280v150h184v-150h-184z" />
<glyph unicode="&#xf0;" horiz-adv-x="481" />
<glyph unicode="&#xf1;" horiz-adv-x="1204" d="M150 0v1051h124l33 -136q190 135 385 136q362 0 363 -392v-659h-185v662q0 236 -233 235q-156 0 -301 -133v-764h-186zM352 1260v149q106 82 242 21q133 -59 260 20v-152q-104 -80 -242 -18q-133 60 -260 -20z" />
<glyph unicode="&#xf2;" horiz-adv-x="1198" d="M100 524q0 526 500 526.5t500 -526.5q0 -524 -500 -524q-498 0 -500 524zM285 528q0 -379 315 -378.5t315 378.5q0 371 -315 371t-315 -371zM385 1356v149l399 -149v-152z" />
<glyph unicode="&#xf3;" horiz-adv-x="1198" d="M100 524q0 526 500 526.5t500 -526.5q0 -524 -500 -524q-498 0 -500 524zM285 528q0 -379 315 -378.5t315 378.5q0 371 -315 371t-315 -371zM391 1204v152l402 149v-149z" />
<glyph unicode="&#xf4;" horiz-adv-x="1198" d="M100 524q0 526 500 526.5t500 -526.5q0 -524 -500 -524q-498 0 -500 524zM285 528q0 -379 315 -378.5t315 378.5q0 371 -315 371t-315 -371zM338 1280l174 260h152l174 -260h-150l-100 160l-101 -160h-149z" />
<glyph unicode="&#xf5;" horiz-adv-x="1198" d="M100 524q0 526 500 526.5t500 -526.5q0 -524 -500 -524q-498 0 -500 524zM285 528q0 -379 315 -378.5t315 378.5q0 371 -315 371t-315 -371zM346 1260v149q106 82 240 21q133 -59 260 20v-152q-104 -80 -240 -18q-133 60 -260 -20z" />
<glyph unicode="&#xf6;" horiz-adv-x="1198" d="M100 524q0 526 500 526.5t500 -526.5q0 -524 -500 -524q-498 0 -500 524zM285 528q0 -379 315 -378.5t315 378.5q0 371 -315 371t-315 -371zM322 1280v150h184v-150h-184zM690 1280v150h187v-150h-187z" />
<glyph unicode="&#xf7;" horiz-adv-x="983" d="M100 451h785v149h-785v-149zM399 150v149h187v-149h-187zM399 750v149h187v-149h-187z" />
<glyph unicode="&#xf8;" horiz-adv-x="1198" d="M100 524q0 526 500 526.5t500 -526.5q0 -524 -500 -524q-498 0 -500 524zM115 0l800 1051h197l-801 -1051h-196zM285 528q0 -379 315 -378.5t315 378.5q0 371 -315 371t-315 -371z" />
<glyph unicode="&#xf9;" horiz-adv-x="1204" d="M150 391v660h186v-664q0 -233 231 -233q158 0 303 133v764h185v-1051h-127l-31 133q-188 -133 -385 -133q-362 0 -362 391zM408 1356v149l401 -149v-152z" />
<glyph unicode="&#xfa;" horiz-adv-x="1204" d="M150 391v660h186v-664q0 -233 231 -233q158 0 303 133v764h185v-1051h-127l-31 133q-188 -133 -385 -133q-362 0 -362 391zM408 1204v152l401 149v-149z" />
<glyph unicode="&#xfb;" horiz-adv-x="1204" d="M150 391v660h186v-664q0 -233 231 -233q158 0 303 133v764h185v-1051h-127l-31 133q-188 -133 -385 -133q-362 0 -362 391zM352 1280l174 260h152l174 -260h-150l-100 160l-100 -160h-150z" />
<glyph unicode="&#xfc;" horiz-adv-x="1204" d="M150 391v660h186v-664q0 -233 231 -233q158 0 303 133v764h185v-1051h-127l-31 133q-188 -133 -385 -133q-362 0 -362 391zM332 1280v150h184v-150h-184zM700 1280v150h187v-150h-187z" />
<glyph unicode="&#xfd;" horiz-adv-x="391" />
<glyph unicode="&#xfe;" horiz-adv-x="346" />
<glyph unicode="&#xff;" horiz-adv-x="391" />
<glyph unicode="&#x152;" horiz-adv-x="2213" d="M100 713q0 717 717 717h1258v-150h-775q195 -147 226 -479h514v-152h-514q-31 -354 -226 -499h791v-150h-1274q-717 0 -717 713zM295 719q0 -569 522 -569q512 0 512 569q0 561 -512 561q-522 0 -522 -561z" />
<glyph unicode="&#x153;" horiz-adv-x="1941" d="M100 522q0 528 500 529q285 0 406 -170q117 170 405 170q489 0 391 -580h-702q0 -322 401 -321q141 0 279 28v-145q-147 -33 -332 -33q-313 0 -442 176q-115 -176 -406 -176q-500 0 -500 522zM281 528q0 -379 315 -378.5t315 378.5q0 371 -315 371t-315 -371zM1096 627 h538q14 274 -250 274q-270 0 -288 -274z" />
<glyph unicode="&#x178;" horiz-adv-x="524" />
<glyph unicode="&#x2c6;" horiz-adv-x="548" d="M25 1278l176 260h149l174 -260h-149l-101 160l-100 -160h-149z" />
<glyph unicode="&#x2dc;" horiz-adv-x="698" d="M100 430v150q106 82 240 20q133 -59 260 21v-152q-104 -80 -240 -18q-133 59 -260 -21z" />
<glyph unicode="&#x2000;" horiz-adv-x="917" />
<glyph unicode="&#x2001;" horiz-adv-x="1837" />
<glyph unicode="&#x2002;" horiz-adv-x="917" />
<glyph unicode="&#x2003;" horiz-adv-x="1837" />
<glyph unicode="&#x2004;" horiz-adv-x="610" />
<glyph unicode="&#x2005;" horiz-adv-x="458" />
<glyph unicode="&#x2006;" horiz-adv-x="305" />
<glyph unicode="&#x2007;" horiz-adv-x="305" />
<glyph unicode="&#x2008;" horiz-adv-x="227" />
<glyph unicode="&#x2009;" horiz-adv-x="366" />
<glyph unicode="&#x200a;" horiz-adv-x="100" />
<glyph unicode="&#x2010;" horiz-adv-x="698" d="M100 451v149h500v-149h-500z" />
<glyph unicode="&#x2011;" horiz-adv-x="698" d="M100 451v149h500v-149h-500z" />
<glyph unicode="&#x2012;" horiz-adv-x="698" d="M100 451v149h500v-149h-500z" />
<glyph unicode="&#x2013;" horiz-adv-x="681" />
<glyph unicode="&#x2014;" horiz-adv-x="892" />
<glyph unicode="&#x2018;" horiz-adv-x="534" d="M100 1430h185l149 -435h-184z" />
<glyph unicode="&#x2019;" horiz-adv-x="534" d="M100 995l150 435h184l-149 -435h-185z" />
<glyph unicode="&#x201a;" horiz-adv-x="233" />
<glyph unicode="&#x201c;" horiz-adv-x="903" d="M100 995l150 435h184l-149 -435h-185zM469 995l152 435h184l-150 -435h-186z" />
<glyph unicode="&#x201d;" horiz-adv-x="903" d="M100 1430h185l149 -435h-184zM469 1430h186l150 -435h-184z" />
<glyph unicode="&#x201e;" horiz-adv-x="903" d="M100 -250l150 434h184l-149 -434h-185zM469 -250l152 434h184l-150 -434h-186z" />
<glyph unicode="&#x2022;" horiz-adv-x="628" d="M100 725q0 215 215 215t215 -215t-215 -215t-215 215z" />
<glyph unicode="&#x2026;" horiz-adv-x="790" />
<glyph unicode="&#x202f;" horiz-adv-x="366" />
<glyph unicode="&#x2039;" horiz-adv-x="608" d="M100 524l258 375h201l-258 -375l258 -374h-201z" />
<glyph unicode="&#x203a;" horiz-adv-x="608" d="M49 150l258 374l-258 375h203l258 -375l-258 -374h-203z" />
<glyph unicode="&#x205f;" horiz-adv-x="458" />
<glyph unicode="&#x20ac;" horiz-adv-x="1384" d="M100 735q0 705 750 705q221 0 399 -60v-159q-182 70 -379 69q-500 0 -585 -348h774v-149h-795v-111h795v-150h-774q76 -393 585 -393q193 0 379 72v-162q-178 -59 -399 -59q-750 0 -750 745z" />
<glyph unicode="&#x2122;" horiz-adv-x="1605" d="M150 1360v70h512v-70h-213v-602h-87v602h-212zM750 758v672h110l248 -562l242 562h106v-672h-78v542l-239 -542h-70l-242 542v-542h-77z" />
<glyph unicode="&#xe000;" horiz-adv-x="1050" d="M0 1050h1050v-1050h-1050v1050z" />
<glyph unicode="&#xfb01;" horiz-adv-x="1204" d="M871 0v1051h186v-1051h-186zM871 1280v150h186v-150h-186zM150 -4v1106q0 381 393 381q127 0 233 -41v-150q-96 39 -235 39q-205 0 -205 -172v-108h313v-152h-313v-899z" />
<glyph unicode="&#xfb02;" horiz-adv-x="1204" d="M871 0v1430h186v-1430h-186zM150 -4v1106q0 381 393 381q127 0 233 -41v-150q-96 39 -235 39q-205 0 -205 -172v-108h313v-152h-313v-899z" />
<glyph unicode="&#xfb03;" horiz-adv-x="1925" d="M1592 0v1051h186v-1051h-186zM1592 1280v150h186v-150h-186zM871 -4v1106q0 381 393 381q127 0 233 -41v-150q-96 39 -235 39q-205 0 -205 -172v-108h313v-152h-313v-899zM150 -4v1106q0 381 393 381q127 0 233 -41v-150q-96 39 -235 39q-205 0 -205 -172v-108h313v-152 h-313v-899z" />
<glyph unicode="&#xfb04;" horiz-adv-x="1925" d="M1592 0v1430h186v-1430h-186zM871 -4v1106q0 381 393 381q127 0 233 -41v-150q-96 39 -235 39q-205 0 -205 -172v-108h313v-152h-313v-899zM150 -4v1106q0 381 393 381q127 0 233 -41v-150q-96 39 -235 39q-205 0 -205 -172v-108h313v-152h-313v-899z" />
</font>
</defs>
</svg>
