# Blender v2.79 (sub 0) OBJ File: ''
# www.blender.org
mtllib TestCubeTris.mtl
o Cube
v 1.000000 -1.000000 -1.000000
v 1.000000 -1.000000 1.000000
v -1.000000 -1.000000 1.000000
v -1.000000 -1.000000 -1.000000
v 1.000000 1.000000 -0.999999
v 0.999999 1.000000 1.000001
v -1.000000 1.000000 1.000000
v -1.000000 1.000000 -1.000000
vt 0.500000 0.378168
vt 0.749957 0.628125
vt 0.500000 0.628125
vt 0.000087 0.628125
vt 0.250043 0.378168
vt 0.250043 0.628125
vt 0.500000 0.128212
vt 0.749957 0.378168
vt 0.999913 0.628125
vt 0.250044 0.878082
vt 0.000087 0.378168
vt 0.250043 0.128212
vt 0.999913 0.378168
vt 0.500000 0.878082
vn 0.0000 -1.0000 0.0000
vn 0.0000 1.0000 0.0000
vn 1.0000 -0.0000 0.0000
vn 0.0000 -0.0000 1.0000
vn -1.0000 -0.0000 -0.0000
vn 0.0000 0.0000 -1.0000
usemtl TestCubeMat
s off
f 2/1/1 4/2/1 1/3/1
f 8/4/2 6/5/2 5/6/2
f 5/6/3 2/1/3 1/3/3
f 6/5/4 3/7/4 2/1/4
f 3/8/5 8/9/5 4/2/5
f 1/3/6 8/10/6 5/6/6
f 2/1/1 3/8/1 4/2/1
f 8/4/2 7/11/2 6/5/2
f 5/6/3 6/5/3 2/1/3
f 6/5/4 7/12/4 3/7/4
f 3/8/5 7/13/5 8/9/5
f 1/3/6 4/14/6 8/10/6
