<?xml version="1.0" encoding="UTF-8" standalone="no"?>
<!-- Created with Inkscape (http://www.inkscape.org/) -->

<svg
   xmlns:dc="http://purl.org/dc/elements/1.1/"
   xmlns:cc="http://creativecommons.org/ns#"
   xmlns:rdf="http://www.w3.org/1999/02/22-rdf-syntax-ns#"
   xmlns:svg="http://www.w3.org/2000/svg"
   xmlns="http://www.w3.org/2000/svg"
   xmlns:sodipodi="http://sodipodi.sourceforge.net/DTD/sodipodi-0.dtd"
   xmlns:inkscape="http://www.inkscape.org/namespaces/inkscape"
   version="1.1"
   width="256"
   height="256"
   id="svg3065"
   inkscape:version="0.48.3.1 r9886"
   sodipodi:docname="makehuman.svg">
  <sodipodi:namedview
     pagecolor="#ffffff"
     bordercolor="#666666"
     borderopacity="1"
     objecttolerance="10"
     gridtolerance="10"
     guidetolerance="10"
     inkscape:pageopacity="0"
     inkscape:pageshadow="2"
     inkscape:window-width="1920"
     inkscape:window-height="1004"
     id="namedview8"
     showgrid="false"
     inkscape:zoom="0.88720703"
     inkscape:cx="35.575124"
     inkscape:cy="86.599367"
     inkscape:window-x="0"
     inkscape:window-y="24"
     inkscape:window-maximized="1"
     inkscape:current-layer="layer1" />
  <defs
     id="defs3067">
    <inkscape:perspective
       sodipodi:type="inkscape:persp3d"
       inkscape:vp_x="0 : 526.18109 : 1"
       inkscape:vp_y="0 : 1000 : 0"
       inkscape:vp_z="744.09448 : 526.18109 : 1"
       inkscape:persp3d-origin="372.04724 : 350.78739 : 1"
       id="perspective10" />
  </defs>
  <metadata
     id="metadata3070">
    <rdf:RDF>
      <cc:Work
         rdf:about="">
        <dc:format>image/svg+xml</dc:format>
        <dc:type
           rdf:resource="http://purl.org/dc/dcmitype/StillImage" />
        <dc:title></dc:title>
      </cc:Work>
    </rdf:RDF>
  </metadata>
  <g
     id="layer1"
     transform="matrix(3.1513368,0,0,3.122843,-943.919,-1437.6544)">
    <path
       sodipodi:type="arc"
       style="fill:#414141;fill-rule:evenodd;stroke:#414142;stroke-width:1px;stroke-linecap:butt;stroke-linejoin:miter;stroke-opacity:1;fill-opacity:1"
       id="path2985"
       sodipodi:cx="121.16676"
       sodipodi:cy="120.18052"
       sodipodi:rx="116.65823"
       sodipodi:ry="116.65823"
       d="m 237.825,120.18052 a 116.65823,116.65823 0 1 1 -233.3164703,0 116.65823,116.65823 0 1 1 233.3164703,0 z"
       transform="matrix(0.31732565,0,0,0.32022103,302.03339,462.17183)" />
    <path
       d="m 340.00001,461.37752 c -21.83498,0 -39.55612,17.72114 -39.55612,39.55611 0,21.83495 17.72114,39.55608 39.55612,39.55608 21.83497,0 39.5561,-17.72113 39.5561,-39.55608 0,-21.83497 -17.72113,-39.55611 -39.5561,-39.55611 z m 0,3.07659 c 20.11947,-1e-5 36.42458,16.36007 36.42458,36.47952 0,20.11944 -16.30514,36.42457 -36.42458,36.42457 -20.11946,0 -36.42459,-16.30514 -36.42459,-36.42457 10e-6,-20.11945 16.30513,-36.47952 36.42459,-36.47952 z"
       id="path3406"
       style="fill:#8a979b;fill-opacity:1;fill-rule:nonzero;stroke:none;stroke-width:1;marker:none;visibility:visible;display:inline;overflow:visible;enable-background:accumulate" />
    <path
       d="m 340.00001,476.43135 c -1.88708,0 -3.46118,1.51915 -3.46117,3.40621 0,1.88708 1.57407,3.40626 3.46117,3.40623 1.88707,0 3.40623,-1.51915 3.40622,-3.40623 0,-1.88706 -1.51916,-3.40625 -3.40622,-3.40621 z m -25.65654,3.02164 17.19592,10.43842 6.99168,45.48951 0,-35.82024 3.15763,0 0,35.82024 6.71698,-45.48951 17.25086,-10.43842 -23.96784,7.96616 0,8.2958 -3.15763,0 0,-8.2958 -24.1876,-7.96616 z"
       id="path3408"
       style="fill:#f58220;fill-opacity:1;fill-rule:nonzero;stroke:none;stroke-width:1;marker:none;visibility:visible;display:inline;overflow:visible;enable-background:accumulate" />
  </g>
</svg>
